<?xml version="1.0" encoding="utf-8"?>
<!-- Generator: Adobe Illustrator 19.2.1, SVG Export Plug-In . SVG Version: 6.00 Build 0)  -->
<svg version="1.1" id="_x32_71e5882-3c8d-41ed-8a0a-1cb2b4d0cbc1"
	 xmlns="http://www.w3.org/2000/svg" xmlns:xlink="http://www.w3.org/1999/xlink" x="0px" y="0px" viewBox="0 0 1137.7 859.7"
	 style="enable-background:new 0 0 1137.7 859.7;" xml:space="preserve">
<style type="text/css">
	.st0{fill:#EF807D;}
	.st1{fill:#D1706E;}
	.st2{fill:#E3EAFF;}
	.st3{fill:#6DB8FF;}
	.st4{fill:#2D84FD;}
	.st5{fill:#C8D6F2;}
	.st6{opacity:0.2;fill:#424261;}
	.st7{opacity:0.21;fill:#E3EAFF;}
	.st8{fill:#F9FBFC;}
	.st9{fill:#9570EE;}
	.st10{fill:#BB87EE;}
	.st11{fill:#7F57EE;}
	.st12{fill:#CED6FF;}
	.st13{fill:#CDD4FF;}
	.st14{fill:#FFC240;}
	.st15{fill:#90C240;}
	.st16{fill:#EB4F24;}
	.st17{fill:#FD4940;}
	.st18{fill:#00CCFF;}
	.st19{fill:#FF56A9;}
	.st20{fill:#FFC359;}
	.st21{fill:#FF4DD1;}
	.st22{fill:#FFFFFF;}
	.st23{fill:#F7D3A9;}
	.st24{fill:#F79A74;}
	.st25{fill:#544DB8;}
	.st26{fill:#FF4F72;}
	.st27{fill:#FEC800;}
	.st28{fill:#4A51A2;}
	.st29{fill:#3B428E;}
	.st30{fill:#454B9D;}
	.st31{fill:#454A9C;}
	.st32{fill:#3D4391;}
	.st33{fill:#FF8B40;}
</style>
<g>
	<title>team spirit</title>
	<g>
		<g>
			<path class="st0" d="M1112.8,708.1c-3.6-59.6-53.1-106.8-113.6-106.8c-60.5,0-110,47.2-113.6,106.8H1112.8z"/>
			<path class="st1" d="M1033.6,606.6c4,15.4,3.7,31.4-6.7,44.8c-19.1,24.5-57.5,27.6-86.1,26.4c-15.3-0.6-31.3-2.4-46.9-6
				c-4.7,11.3-7.6,23.6-8.4,36.4h227.2C1109.9,660.3,1077.5,620.5,1033.6,606.6z"/>
			<path class="st0" d="M1127.1,701.9c0,5.3-4.3,9.6-9.6,9.6H881c-5.3,0-9.6-4.3-9.6-9.6l0,0c0-5.3,4.3-9.6,9.6-9.6h236.4
				C1122.8,692.3,1127.1,696.6,1127.1,701.9L1127.1,701.9z"/>
		</g>
		<path class="st0" d="M947.4,616.9H1051l9.9-4c0,0-43.1-123.7-5.8-177.4H943.3c37.4,53.7-5.8,177.4-5.8,177.4L947.4,616.9z"/>
		<g>
			<path class="st1" d="M1064.7,617.6c0,3.9-2.2,7-4.9,7H938.7c-2.7,0-4.9-3.1-4.9-7l0,0c0-3.9,2.2-7,4.9-7h121.1
				C1062.5,610.6,1064.7,613.7,1064.7,617.6L1064.7,617.6z"/>
		</g>
		<path class="st0" d="M1070.3,365.3c-22.8-19.3-71.4-26.5-71.4-26.5s-48.8,7.2-71.6,26.5c-22.8,19.3,16.6,65,16.6,65l47.7,5.2
			l-0.1,1.6l7.3-0.8l7.3,0.8l-0.1-1.6l47.7-5.2C1053.7,430.3,1093.1,384.6,1070.3,365.3z"/>
		<path class="st1" d="M1070.3,365.3c-10.8-9.1-27.4-15.6-41.9-19.8c9.1,7.4,17.9,16.6,14.6,27.3c-4.7,14.8-24.2,23.5-37.9,27.7
			c-26.6,8.2-60.2,7.5-83.4-9.5c5,19.1,22.3,39.2,22.3,39.2l47.7,5.2l-0.1,1.6l7.3-0.8l7.3,0.8l-0.1-1.6l47.7-5.2
			C1053.7,430.3,1093.1,384.6,1070.3,365.3z"/>
		<circle class="st0" cx="998.8" cy="332.5" r="19.8"/>
		<g>
			<path class="st1" d="M1065.9,436.6c0,3.9-2.2,7-4.9,7H939.8c-2.7,0-4.9-3.1-4.9-7l0,0c0-3.9,2.2-7,4.9-7h121.1
				C1063.7,429.6,1065.9,432.7,1065.9,436.6L1065.9,436.6z"/>
		</g>
	</g>
	<g>
		<g>
			<path class="st2" d="M895.8,765.4H75.5c-3.8,0-6.9-3.1-6.9-6.9V179.7c0-3.8,3.1-6.9,6.9-6.9h820.3c3.8,0,6.9,3.1,6.9,6.9v578.8
				C902.7,762.3,899.6,765.4,895.8,765.4z"/>
			<path class="st3" d="M886.2,757.6H85c-3,0-5.5-2.5-5.5-5.5V186c0-3,2.5-5.5,5.5-5.5h801.2c3,0,5.5,2.5,5.5,5.5v566.1
				C891.7,755.2,889.3,757.6,886.2,757.6z"/>
			<path class="st4" d="M853.2,706.7H118c-1.9,0-3.4-1.5-3.4-3.4V211.1c0-1.9,1.5-3.4,3.4-3.4h735.2c1.9,0,3.4,1.5,3.4,3.4v492.3
				C856.6,705.2,855.1,706.7,853.2,706.7z"/>
			<path class="st2" d="M48.3,734.7c-2.4,4.4-3.9,9.4-3.9,14.8c0,17.3,14,31.3,31.3,31.3h819.9c17.3,0,31.3-14,31.3-31.3
				c0-5.4-1.5-10.4-3.9-14.8H48.3z"/>
		</g>
		<path class="st5" d="M48.3,764.3c5.3,9.8,15.5,16.5,27.4,16.5h819.9c11.9,0,22.1-6.7,27.4-16.5H48.3z"/>
	</g>
	<path class="st6" d="M865.4,172.7H308.8v372c0,8.2,6.7,14.9,14.9,14.9h579.1V210.1C902.7,189.4,886,172.7,865.4,172.7z"/>
	<path class="st7" d="M978.1,542.9H332c-1.5,0-2.8-1.2-2.8-2.8V132.3c0-1.5,1.2-2.8,2.8-2.8h646.1c1.5,0,2.8,1.2,2.8,2.8v407.8
		C980.8,541.6,979.6,542.9,978.1,542.9z"/>
	<path class="st8" d="M1004.1,514.9H358.1c-1.5,0-2.8-1.2-2.8-2.8V104.4c0-1.5,1.2-2.8,2.8-2.8h646.1c1.5,0,2.8,1.2,2.8,2.8v407.8
		C1006.9,513.7,1005.7,514.9,1004.1,514.9z"/>
	<path class="st6" d="M242.6,383.7h-81.3c-1,0-1.7-0.8-1.7-1.7v-85c0-1,0.8-1.7,1.7-1.7h81.3c1,0,1.7,0.8,1.7,1.7v85
		C244.3,382.9,243.5,383.7,242.6,383.7z"/>
	<path class="st3" d="M237.7,512.1h-81.3c-1,0-1.7-0.8-1.7-1.7v-85c0-1,0.8-1.7,1.7-1.7h81.3c1,0,1.7,0.8,1.7,1.7v85
		C239.4,511.4,238.6,512.1,237.7,512.1z"/>
	<path class="st3" d="M237.7,637.8h-81.3c-1,0-1.7-0.8-1.7-1.7v-85c0-1,0.8-1.7,1.7-1.7h81.3c1,0,1.7,0.8,1.7,1.7v85
		C239.4,637,238.6,637.8,237.7,637.8z"/>
	<g>
		<path class="st9" d="M215.6,583.9c0-11.1-9-20.1-20.1-20.1c-11.1,0-20.1,9-20.1,20.1c0,0-2.8,21.3,20.1,38.3
			C218.4,605.2,215.6,583.9,215.6,583.9z"/>
		<path class="st8" d="M196.6,598.4c-9,0.7-16.4-6.7-15.7-15.7c0.6-7.1,6.3-12.8,13.4-13.4c9-0.7,16.4,6.7,15.7,15.7
			C209.4,592.1,203.7,597.8,196.6,598.4z"/>
	</g>
	<g>
		<g>
			<g>
				<circle class="st9" cx="195" cy="466.8" r="27.9"/>
				<circle class="st8" cx="195" cy="466.8" r="22.5"/>
				<path class="st10" d="M195,444.3c10.2,0,18.8,6.8,21.5,16.1c0.1,0.4,0.5,0.7,0.9,0.7l0,0c0.6,0,1-0.6,0.9-1.1
					c-3-10-12.3-17.4-23.3-17.4c-11,0-20.3,7.3-23.3,17.4c-0.2,0.6,0.3,1.1,0.9,1.1l0,0c0.4,0,0.7-0.3,0.9-0.7
					C176.2,451.1,184.8,444.3,195,444.3z"/>
				<path class="st11" d="M219.9,467.5c-1.3,0-2.5,1-2.7,2.3c-1.5,11-10.9,19.4-22.3,19.4c-11.4,0-20.8-8.5-22.3-19.4
					c-0.2-1.3-1.3-2.3-2.7-2.3l0,0c-1.6,0-2.9,1.4-2.7,3c1.8,13.6,13.5,24.1,27.6,24.1c14.1,0,25.8-10.5,27.6-24.1
					C222.8,468.9,221.6,467.5,219.9,467.5L219.9,467.5z"/>
				<circle class="st8" cx="195" cy="466.8" r="22.5"/>
				<path class="st9" d="M216.9,474c-0.4,0-0.7,0.2-0.8,0.6c-3.2,8.5-11.4,14.6-21.1,14.6c-9.6,0-17.9-6.1-21-14.6
					c-0.1-0.4-0.5-0.6-0.8-0.6l0,0c-0.6,0-1.1,0.6-0.8,1.2c3.4,9.2,12.3,15.8,22.7,15.8c10.4,0,19.3-6.6,22.7-15.8
					C218,474.6,217.6,474,216.9,474L216.9,474z"/>
			</g>
			<path class="st9" d="M195,468.7L195,468.7c-0.6,0-1.1-0.5-1.1-1.1v-15.8c0-0.6,0.5-1.1,1.1-1.1l0,0c0.6,0,1.1,0.5,1.1,1.1v15.8
				C196,468.3,195.6,468.7,195,468.7z"/>
			<path class="st9" d="M194.2,467.1L194.2,467.1c0.4-0.5,1.1-0.5,1.5-0.1l9.8,8.2c0.5,0.4,0.5,1.1,0.1,1.5l0,0
				c-0.4,0.5-1.1,0.5-1.5,0.1l-9.8-8.2C193.9,468.2,193.8,467.5,194.2,467.1z"/>
		</g>
		<g>
			<rect x="194.4" y="445.8" class="st12" width="0.8" height="2.2"/>
			<rect x="194.4" y="485.2" class="st12" width="0.8" height="2.2"/>
		</g>
		<g>
			
				<rect x="174.7" y="465.5" transform="matrix(6.123234e-017 -1 1 6.123234e-017 -291.459 641.7063)" class="st12" width="0.8" height="2.2"/>
			
				<rect x="214.1" y="465.5" transform="matrix(6.123234e-017 -1 1 6.123234e-017 -252.0998 681.0655)" class="st12" width="0.8" height="2.2"/>
		</g>
		<g>
			
				<rect x="180.5" y="451.6" transform="matrix(0.7074 -0.7068 0.7068 0.7074 -267.0221 260.3012)" class="st12" width="0.8" height="2.2"/>
			
				<rect x="208.3" y="479.4" transform="matrix(0.7071 -0.7071 0.7071 0.7071 -278.6314 288.3212)" class="st12" width="0.8" height="2.2"/>
		</g>
		<g>
			
				<rect x="180.5" y="479.4" transform="matrix(-0.7071 -0.7071 0.7071 -0.7071 -30.9921 948.1586)" class="st12" width="0.8" height="2.2"/>
			
				<rect x="208.3" y="451.6" transform="matrix(-0.7074 -0.7068 0.7068 -0.7074 36.4415 920.4187)" class="st12" width="0.8" height="2.2"/>
		</g>
	</g>
	<path class="st2" d="M589.5,474.4H396.6c-0.7,0-1.3-0.6-1.3-1.3V146.2c0-0.7,0.6-1.3,1.3-1.3h192.9c0.7,0,1.3,0.6,1.3,1.3v326.9
		C590.8,473.9,590.2,474.4,589.5,474.4z"/>
	<path class="st3" d="M554.4,199.4H429.9c-0.6,0-1-0.5-1-1v-25.9c0-0.6,0.5-1,1-1h124.5c0.6,0,1,0.5,1,1v25.9
		C555.4,198.9,555,199.4,554.4,199.4z"/>
	<path class="st3" d="M471.2,354.6h-25.1c-5.9,0-10.7-4.8-10.7-10.7l0,0c0-5.9,4.8-10.7,10.7-10.7h25.1c5.9,0,10.7,4.8,10.7,10.7
		l0,0C481.9,349.8,477.1,354.6,471.2,354.6z"/>
	<path class="st9" d="M543.8,354.6h-25.1c-5.9,0-10.7-4.8-10.7-10.7l0,0c0-5.9,4.8-10.7,10.7-10.7h25.1c5.9,0,10.7,4.8,10.7,10.7
		l0,0C554.5,349.8,549.7,354.6,543.8,354.6z"/>
	<rect x="426" y="227.3" class="st8" width="135.9" height="21.4"/>
	<rect x="426" y="263.6" class="st8" width="135.9" height="21.4"/>
	<rect x="455.4" y="298.5" class="st13" width="78.2" height="4.9"/>
	<path class="st9" d="M993.6,413.5H749.3c-15,0-27.2-12.2-27.2-27.2l0,0c0-15,12.2-27.2,27.2-27.2h244.4c15,0,27.2,12.2,27.2,27.2
		l0,0C1020.9,401.3,1008.7,413.5,993.6,413.5z"/>
	<g>
		<path class="st2" d="M782.1,182.6H629.9c-12.3,0-22.3-10-22.3-22.3l0,0c0-12.3,10-22.3,22.3-22.3h152.2c12.3,0,22.3,10,22.3,22.3
			l0,0C804.4,172.6,794.4,182.6,782.1,182.6z"/>
		<circle class="st14" cx="659.2" cy="160.3" r="7"/>
		<circle class="st15" cx="707.2" cy="160.3" r="7"/>
		<circle class="st16" cx="751.4" cy="160.3" r="7"/>
	</g>
	<g>
		<path class="st2" d="M813.2,326.8H667.5c-1.1,0-2-0.9-2-2v-94.3c0-1.1,0.9-2,2-2h145.7c1.1,0,2,0.9,2,2v94.3
			C815.2,325.8,814.3,326.8,813.2,326.8z"/>
		<path class="st17" d="M740.5,276.8h-0.3c-0.7,0-1.3-0.2-1.9-0.5l-57.7-32.1c-1.9-1.1-2.6-3.5-1.5-5.4c1.1-1.9,3.5-2.6,5.4-1.5
			l56,31.1l56-31.1c1.9-1.1,4.3-0.4,5.4,1.5c1.1,1.9,0.4,4.3-1.5,5.4l-57.7,32.1C741.8,276.6,741.1,276.8,740.5,276.8z"/>
	</g>
	<path class="st4" d="M1033,316.7H850.9c-1,0-1.8-0.8-1.8-1.8V78.3c0-1,0.8-1.8,1.8-1.8H1033c1,0,1.8,0.8,1.8,1.8v236.5
		C1034.8,315.9,1034,316.7,1033,316.7z"/>
	<g>
		<path class="st18" d="M890.6,108.7h-12.4c-0.7,0-1.2-1.1-1.2-2.4l0,0c0-1.3,0.5-2.4,1.2-2.4h12.4c0.7,0,1.2,1.1,1.2,2.4l0,0
			C891.8,107.6,891.3,108.7,890.6,108.7z"/>
		<path class="st18" d="M967.2,108.7h-70.8c-0.7,0-1.2-1.1-1.2-2.4l0,0c0-1.3,0.5-2.4,1.2-2.4h70.8c0.7,0,1.2,1.1,1.2,2.4l0,0
			C968.4,107.6,967.9,108.7,967.2,108.7z"/>
		<path class="st19" d="M919,118.6h-22.6c-0.7,0-1.2-1.1-1.2-2.4l0,0c0-1.3,0.5-2.4,1.2-2.4H919c0.7,0,1.2,1.1,1.2,2.4l0,0
			C920.2,117.5,919.7,118.6,919,118.6z"/>
		<path class="st2" d="M956.2,118.6h-32.5c-0.7,0-1.2-1.1-1.2-2.4l0,0c0-1.3,0.5-2.4,1.2-2.4h32.5c0.7,0,1.2,1.1,1.2,2.4l0,0
			C957.3,117.5,956.8,118.6,956.2,118.6z"/>
		<path class="st2" d="M967.2,166.7h-70.8c-0.7,0-1.2-1.1-1.2-2.4l0,0c0-1.3,0.5-2.4,1.2-2.4h70.8c0.7,0,1.2,1.1,1.2,2.4l0,0
			C968.4,165.7,967.9,166.7,967.2,166.7z"/>
		<path class="st18" d="M890.6,176.6h-12.4c-0.7,0-1.2-1.1-1.2-2.4l0,0c0-1.3,0.5-2.4,1.2-2.4h12.4c0.7,0,1.2,1.1,1.2,2.4l0,0
			C891.8,175.5,891.3,176.6,890.6,176.6z"/>
		<path class="st2" d="M919,176.6h-22.6c-0.7,0-1.2-1.1-1.2-2.4l0,0c0-1.3,0.5-2.4,1.2-2.4H919c0.7,0,1.2,1.1,1.2,2.4l0,0
			C920.2,175.5,919.7,176.6,919,176.6z"/>
		<path class="st19" d="M956.2,176.6h-32.5c-0.7,0-1.2-1.1-1.2-2.4l0,0c0-1.3,0.5-2.4,1.2-2.4h32.5c0.7,0,1.2,1.1,1.2,2.4l0,0
			C957.3,175.5,956.8,176.6,956.2,176.6z"/>
		<path class="st19" d="M984.8,128.5h-88.3c-0.7,0-1.2-1.1-1.2-2.4l0,0c0-1.3,0.5-2.4,1.2-2.4h88.3c0.7,0,1.2,1.1,1.2,2.4l0,0
			C986,127.4,985.4,128.5,984.8,128.5z"/>
		<path class="st18" d="M967.3,138.4h-22.6c-0.1,0-0.2-0.1-0.2-0.2v-4.3c0-0.1,0.1-0.2,0.2-0.2h22.6c0.1,0,0.2,0.1,0.2,0.2v4.3
			C967.5,138.3,967.4,138.4,967.3,138.4z"/>
		<path class="st2" d="M925.8,138.4h-29.3c-0.7,0-1.2-1.1-1.2-2.4l0,0c0-1.3,0.5-2.4,1.2-2.4h29.3c0.7,0,1.2,1.1,1.2,2.4l0,0
			C927,137.3,926.4,138.4,925.8,138.4z"/>
		<path class="st18" d="M941.4,138.4h-11.6c-0.7,0-1.2-1.1-1.2-2.4l0,0c0-1.3,0.5-2.4,1.2-2.4h11.6c0.7,0,1.2,1.1,1.2,2.4l0,0
			C942.6,137.3,942.1,138.4,941.4,138.4z"/>
		<path class="st2" d="M890.6,147.9h-12.4c-0.7,0-1.2-1.1-1.2-2.4l0,0c0-1.3,0.5-2.4,1.2-2.4h12.4c0.7,0,1.2,1.1,1.2,2.4l0,0
			C891.8,146.8,891.3,147.9,890.6,147.9z"/>
		<path class="st2" d="M984.8,147.9h-88.3c-0.7,0-1.2-1.1-1.2-2.4l0,0c0-1.3,0.5-2.4,1.2-2.4h88.3c0.7,0,1.2,1.1,1.2,2.4l0,0
			C986,146.8,985.4,147.9,984.8,147.9z"/>
		<path class="st2" d="M890.6,185.8h-12.4c-0.7,0-1.2-1.1-1.2-2.4l0,0c0-1.3,0.5-2.4,1.2-2.4h12.4c0.7,0,1.2,1.1,1.2,2.4l0,0
			C891.8,184.7,891.3,185.8,890.6,185.8z"/>
		<path class="st2" d="M976.1,185.8h-31.4c-0.2,0-0.3-0.1-0.3-0.3v-4.2c0-0.2,0.1-0.3,0.3-0.3h31.4c0.2,0,0.3,0.1,0.3,0.3v4.2
			C976.4,185.7,976.3,185.8,976.1,185.8z"/>
		<path class="st2" d="M925.8,185.8h-29.3c-0.7,0-1.2-1.1-1.2-2.4l0,0c0-1.3,0.5-2.4,1.2-2.4h29.3c0.7,0,1.2,1.1,1.2,2.4l0,0
			C927,184.7,926.4,185.8,925.8,185.8z"/>
		<path class="st2" d="M941.4,185.8h-11.6c-0.7,0-1.2-1.1-1.2-2.4l0,0c0-1.3,0.5-2.4,1.2-2.4h11.6c0.7,0,1.2,1.1,1.2,2.4l0,0
			C942.6,184.7,942.1,185.8,941.4,185.8z"/>
		<path class="st20" d="M890.6,195.3h-12.4c-0.7,0-1.2-1.1-1.2-2.4l0,0c0-1.3,0.5-2.4,1.2-2.4h12.4c0.7,0,1.2,1.1,1.2,2.4l0,0
			C891.8,194.3,891.3,195.3,890.6,195.3z"/>
		<path class="st18" d="M911.7,195.3h-15.3c-0.7,0-1.2-1.1-1.2-2.4l0,0c0-1.3,0.5-2.4,1.2-2.4h15.3c0.7,0,1.2,1.1,1.2,2.4l0,0
			C912.9,194.3,912.4,195.3,911.7,195.3z"/>
		<path class="st18" d="M878.2,157.8c-0.7,0-1.2-1.1-1.2-2.4l0,0c0-1.3,0.5-2.4,1.2-2.4h12.4c0.7,0,1.2,1.1,1.2,2.4l0,0
			c0,1.3-0.5,2.4-1.2,2.4"/>
		<path class="st2" d="M980.2,157.8h-35.5c-0.2,0-0.3-0.1-0.3-0.3v-4.2c0-0.2,0.1-0.3,0.3-0.3h35.5c0.2,0,0.3,0.1,0.3,0.3v4.2
			C980.5,157.7,980.4,157.8,980.2,157.8z"/>
		<path class="st20" d="M925.8,157.8h-29.3c-0.7,0-1.2-1.1-1.2-2.4l0,0c0-1.3,0.5-2.4,1.2-2.4h29.3c0.7,0,1.2,1.1,1.2,2.4l0,0
			C927,156.7,926.4,157.8,925.8,157.8z"/>
		<path class="st20" d="M941.4,157.8h-11.6c-0.7,0-1.2-1.1-1.2-2.4l0,0c0-1.3,0.5-2.4,1.2-2.4h11.6c0.7,0,1.2,1.1,1.2,2.4l0,0
			C942.6,156.7,942.1,157.8,941.4,157.8z"/>
		<path class="st2" d="M967.2,205.5h-70.8c-0.7,0-1.2-1.1-1.2-2.4l0,0c0-1.3,0.5-2.4,1.2-2.4h70.8c0.7,0,1.2,1.1,1.2,2.4l0,0
			C968.4,204.4,967.9,205.5,967.2,205.5z"/>
		<path class="st2" d="M919,215.4h-22.6c-0.7,0-1.2-1.1-1.2-2.4l0,0c0-1.3,0.5-2.4,1.2-2.4H919c0.7,0,1.2,1.1,1.2,2.4l0,0
			C920.2,214.3,919.7,215.4,919,215.4z"/>
		<path class="st2" d="M956.2,215.4h-32.5c-0.7,0-1.2-1.1-1.2-2.4l0,0c0-1.3,0.5-2.4,1.2-2.4h32.5c0.7,0,1.2,1.1,1.2,2.4l0,0
			C957.3,214.3,956.8,215.4,956.2,215.4z"/>
		<path class="st2" d="M967.2,263.5h-70.8c-0.7,0-1.2-1.1-1.2-2.4l0,0c0-1.3,0.5-2.4,1.2-2.4h70.8c0.7,0,1.2,1.1,1.2,2.4l0,0
			C968.4,262.5,967.9,263.5,967.2,263.5z"/>
		<path class="st19" d="M890.6,273.4h-12.4c-0.7,0-1.2-1.1-1.2-2.4l0,0c0-1.3,0.5-2.4,1.2-2.4h12.4c0.7,0,1.2,1.1,1.2,2.4l0,0
			C891.8,272.4,891.3,273.4,890.6,273.4z"/>
		<path class="st18" d="M919,273.4h-22.6c-0.7,0-1.2-1.1-1.2-2.4l0,0c0-1.3,0.5-2.4,1.2-2.4H919c0.7,0,1.2,1.1,1.2,2.4l0,0
			C920.2,272.4,919.7,273.4,919,273.4z"/>
		<path class="st2" d="M956.2,273.4h-32.5c-0.7,0-1.2-1.1-1.2-2.4l0,0c0-1.3,0.5-2.4,1.2-2.4h32.5c0.7,0,1.2,1.1,1.2,2.4l0,0
			C957.3,272.4,956.8,273.4,956.2,273.4z"/>
		<path class="st19" d="M890.6,225.3h-12.4c-0.7,0-1.2-1.1-1.2-2.4l0,0c0-1.3,0.5-2.4,1.2-2.4h12.4c0.7,0,1.2,1.1,1.2,2.4l0,0
			C891.8,224.2,891.3,225.3,890.6,225.3z"/>
		<path class="st19" d="M960.8,225.3h-65.3c-0.1,0-0.3-0.1-0.3-0.3v-4.3c0-0.1,0.1-0.3,0.3-0.3h65.3c0.1,0,0.3,0.1,0.3,0.3v4.3
			C961.1,225.2,960.9,225.3,960.8,225.3z"/>
		<path class="st2" d="M890.6,235.2h-12.4c-0.7,0-1.2-1.1-1.2-2.4l0,0c0-1.3,0.5-2.4,1.2-2.4h12.4c0.7,0,1.2,1.1,1.2,2.4l0,0
			C891.8,234.1,891.3,235.2,890.6,235.2z"/>
		<path class="st2" d="M925.8,235.2h-29.3c-0.7,0-1.2-1.1-1.2-2.4l0,0c0-1.3,0.5-2.4,1.2-2.4h29.3c0.7,0,1.2,1.1,1.2,2.4l0,0
			C927,234.1,926.4,235.2,925.8,235.2z"/>
		<path class="st2" d="M941.4,235.2h-11.6c-0.7,0-1.2-1.1-1.2-2.4l0,0c0-1.3,0.5-2.4,1.2-2.4h11.6c0.7,0,1.2,1.1,1.2,2.4l0,0
			C942.6,234.1,942.1,235.2,941.4,235.2z"/>
		<path class="st2" d="M890.6,244.7h-12.4c-0.7,0-1.2-1.1-1.2-2.4l0,0c0-1.3,0.5-2.4,1.2-2.4h12.4c0.7,0,1.2,1.1,1.2,2.4l0,0
			C891.8,243.7,891.3,244.7,890.6,244.7z"/>
		<path class="st2" d="M977.8,244.7h-82.3c-0.2,0-0.3-0.1-0.3-0.3v-4.2c0-0.2,0.1-0.3,0.3-0.3h82.3c0.2,0,0.3,0.1,0.3,0.3v4.2
			C978.1,244.6,978,244.7,977.8,244.7z"/>
		<path class="st2" d="M890.6,282.6h-12.4c-0.7,0-1.2-1.1-1.2-2.4l0,0c0-1.3,0.5-2.4,1.2-2.4h12.4c0.7,0,1.2,1.1,1.2,2.4l0,0
			C891.8,281.5,891.3,282.6,890.6,282.6z"/>
		<path class="st2" d="M984.7,282.6h-39.1c-0.7,0-1.2-1.1-1.2-2.4l0,0c0-1.3,0.5-2.4,1.2-2.4h39.1c0.7,0,1.2,1.1,1.2,2.4l0,0
			C985.9,281.5,985.3,282.6,984.7,282.6z"/>
		<path class="st2" d="M925.8,282.6h-29.3c-0.7,0-1.2-1.1-1.2-2.4l0,0c0-1.3,0.5-2.4,1.2-2.4h29.3c0.7,0,1.2,1.1,1.2,2.4l0,0
			C927,281.5,926.4,282.6,925.8,282.6z"/>
		<path class="st2" d="M941.4,282.6h-11.6c-0.7,0-1.2-1.1-1.2-2.4l0,0c0-1.3,0.5-2.4,1.2-2.4h11.6c0.7,0,1.2,1.1,1.2,2.4l0,0
			C942.6,281.5,942.1,282.6,941.4,282.6z"/>
		<path class="st20" d="M949.8,292.1h-54.3c-0.1,0-0.2-0.1-0.2-0.2v-4.3c0-0.1,0.1-0.2,0.2-0.2h54.3c0.1,0,0.2,0.1,0.2,0.2v4.3
			C950,292,949.9,292.1,949.8,292.1z"/>
		<path class="st19" d="M982.3,254.6h-37.6c-0.2,0-0.3-0.1-0.3-0.3v-4.2c0-0.2,0.1-0.3,0.3-0.3h37.6c0.2,0,0.3,0.1,0.3,0.3v4.2
			C982.6,254.5,982.5,254.6,982.3,254.6z"/>
		<path class="st20" d="M925.8,254.6h-29.3c-0.7,0-1.2-1.1-1.2-2.4l0,0c0-1.3,0.5-2.4,1.2-2.4h29.3c0.7,0,1.2,1.1,1.2,2.4l0,0
			C927,253.5,926.4,254.6,925.8,254.6z"/>
		<path class="st20" d="M941.4,254.6h-11.6c-0.7,0-1.2-1.1-1.2-2.4l0,0c0-1.3,0.5-2.4,1.2-2.4h11.6c0.7,0,1.2,1.1,1.2,2.4l0,0
			C942.6,253.5,942.1,254.6,941.4,254.6z"/>
	</g>
	<g>
		<circle class="st21" cx="1019.9" cy="81.5" r="39.1"/>
		<g>
			<g>
				<path class="st8" d="M1017,77.8l-15.5,5.7l15.5,5.6V95l-22.2-8.4v-6.1L1017,72V77.8z"/>
			</g>
			<g>
				<path class="st8" d="M1022.1,72l22.2,8.4v6.1l-22.2,8.4v-5.8l15.5-5.6l-15.5-5.7V72z"/>
			</g>
		</g>
	</g>
	<g>
		<circle class="st14" cx="465.5" cy="420.5" r="42.4"/>
		<g>
			<path class="st22" d="M487.9,418.1c0,2.6-0.4,5-1.3,7.2c-0.8,2.2-2,3.9-3.6,5.1c-1.5,1.2-3.3,1.9-5.3,1.9c-1.4,0-2.6-0.3-3.6-1
				c-1-0.6-1.8-1.5-2.2-2.6h-0.4c-2,2.4-4.5,3.5-7.5,3.5c-3.2,0-5.8-1-7.7-2.9c-1.9-1.9-2.8-4.6-2.8-8c0-3.9,1.2-7,3.7-9.3
				c2.4-2.4,5.6-3.5,9.6-3.5c1.6,0,3.3,0.2,5.2,0.5c1.9,0.3,3.4,0.7,4.7,1.1l-0.6,13.4c0,2.5,0.7,3.8,2.1,3.8c1.2,0,2.1-0.9,2.8-2.6
				c0.7-1.7,1-3.9,1-6.7c0-2.9-0.6-5.5-1.8-7.8c-1.2-2.3-2.9-4-5.2-5.2c-2.2-1.2-4.8-1.8-7.6-1.8c-3.7,0-6.9,0.8-9.6,2.3
				c-2.7,1.5-4.8,3.7-6.3,6.6c-1.5,2.9-2.2,6.2-2.2,9.9c0,5,1.3,8.9,4,11.6c2.7,2.7,6.6,4,11.7,4c1.9,0,4.1-0.2,6.4-0.6
				c2.3-0.4,4.6-1.1,6.9-1.9v5.3c-3.9,1.7-8.3,2.5-13,2.5c-6.9,0-12.4-1.8-16.2-5.5c-3.9-3.7-5.8-8.7-5.8-15.2c0-4.5,1-8.6,3-12.3
				c2-3.7,4.8-6.6,8.5-8.7c3.7-2.1,7.9-3.1,12.7-3.1c4,0,7.6,0.8,10.8,2.5c3.2,1.6,5.6,4,7.3,7C487,410.6,487.9,414.1,487.9,418.1z
				 M459.8,421.5c0,3.9,1.6,5.8,4.7,5.8c1.6,0,2.9-0.6,3.8-1.7c0.9-1.2,1.4-3,1.6-5.7l0.4-6.1c-0.9-0.2-2-0.3-3.2-0.3
				c-2.3,0-4.1,0.7-5.3,2.1C460.4,417.1,459.8,419.1,459.8,421.5z"/>
		</g>
	</g>
	<g>
		<path class="st9" d="M548.1,7H282.1c-21.6,0-39.1,17.5-39.1,39.1c0,21.6,17.5,39.1,39.1,39.1h19.6l18.9,18.9l18.9-18.9h208.7
			c21.6,0,39.1-17.5,39.1-39.1C587.3,24.5,569.7,7,548.1,7z"/>
		<path class="st22" d="M472,58.6H296.9c-2.4,0-4.4-2-4.4-4.4l0,0c0-2.4,2-4.4,4.4-4.4H472c2.4,0,4.4,2,4.4,4.4l0,0
			C476.4,56.6,474.4,58.6,472,58.6z"/>
		<path class="st22" d="M417.3,34.5H296.9c-2.4,0-4.4-2-4.4-4.4l0,0c0-2.4,2-4.4,4.4-4.4h120.4c2.4,0,4.4,2,4.4,4.4l0,0
			C421.7,32.6,419.7,34.5,417.3,34.5z"/>
	</g>
	<g>
		<path class="st23" d="M911.8,502.8c0,0-3.3,9.7-5.1,15.5c0,0,16-0.3,21.6-7.8l-6-14.3L911.8,502.8z"/>
		<g>
			<polygon class="st24" points="909.4,769.2 910.8,775.2 919.6,775.7 917.7,768.3 			"/>
			<path class="st25" d="M910.8,775.2c0,0-14.8,7.7-14.6,8.2c0.1,0.5,24.9-2.1,24.9-2.1l-1.5-5.6L910.8,775.2z"/>
		</g>
		<g>
			<polygon class="st24" points="983.8,756.9 987.3,762.1 995.7,759.4 991.3,753.1 			"/>
			<path class="st25" d="M987.3,762.1c0,0-11,12.5-10.7,12.9c0.3,0.4,22.5-10.9,22.5-10.9l-3.4-4.7L987.3,762.1z"/>
		</g>
		<path class="st14" d="M893,608.5c0,0-25.3,82.6,14.9,162.2h11.9c0,0-23.8-90.1,6-163L893,608.5z"/>
		<path class="st14" d="M915,611.4c0,0,3.9,86.3,68.5,147.8l11.2-4c0,0-52.7-76.8-49.2-155.5L915,611.4z"/>
		<g>
			<path class="st24" d="M903.4,417l0-5.1c0-0.2,0-0.4-0.1-0.7l-1-3.6l-2.9,0.7l-3-2.7c-1.2-1.2-3.3-0.8-4,0.8
				c-0.9,1.9-2,4.4-2.3,6.3c-0.1,0.8,0.1,1.5,0.6,2.1l4.5,5c0.6,0.7,1.6,1,2.6,0.7l3.6-1.1C902.7,419.1,903.4,418.1,903.4,417z"/>
			<path class="st26" d="M947,528.7c0,0-33-35.4-35.2-48.6c-2.2-13.2-7-62.5-7-62.5l-10.2,2c0,0-3.5,70.4-0.4,78.6
				c3.1,8.1,22.9,49.5,35.9,53.3C943.1,555.2,952.1,542.5,947,528.7z"/>
			<path class="st24" d="M901.2,470.3c0,0-7.4,24.8-2.7,31c4.7,6.2,22.1,0.6,28.8-9.4c6.7-10,8.1-32.5-3.4-34.3
				C912.5,455.7,903.9,460.4,901.2,470.3z"/>
			<path class="st26" d="M945.9,615.2c0,0,6.7-71.4,6.7-90.8c0-0.9,0-1.7,0-2.5c-5-12.6-17.3-12.3-22.3-11.3c-5,1-24.3,7.2-24.2,7.9
				l-0.1-0.1c-6.7,4.8-11.8,10.6-12.2,12c0,0-17.9,37.2-2.2,81.9L945.9,615.2z"/>
			<path class="st24" d="M851.3,420.6l-0.9-5c0-0.2-0.1-0.4-0.2-0.6l-1.6-3.4l-2.7,1.2l-3.4-2.2c-1.4-0.9-3.3-0.2-3.8,1.5
				c-0.6,2.1-1.1,4.7-1.1,6.6c0,0.8,0.4,1.5,1,1.9l5.3,4.1c0.8,0.6,1.8,0.7,2.7,0.3l3.4-1.7C850.9,422.8,851.5,421.7,851.3,420.6z"
				/>
			<path class="st26" d="M913.9,522.9c0,0-38.7-29-43.2-41.7c-4.5-12.7-17.9-60.3-17.9-60.3l-9.7,3.7c0,0,8.9,70,13.4,77.4
				c4.5,7.4,31.3,44.7,44.7,46.1C914.6,549.7,921.3,535.6,913.9,522.9z"/>
			<path class="st25" d="M928.7,457.4c0,0-19.8-8.4-29.3,8.9c-5,10.9,10.9,0.5,13.9,4c3,3.5-4,10.4-2,12.9c2,2.5,5.5-4.5,7.4-0.5
				c2,4-3,4.5-6.5,8.9c-3.5,4.5,3,10.9-2,14.9c-5,4-18.9,6.9-10.4,28.3c8.4,21.3-13.9,26.8-4.5,56.1c9.4,29.3,73.4,45.6,85.3,10.9
				c11.9-34.7-27.8-43.2-25.3-58.5c2.5-15.4,11.4-19.4-0.5-34.7c-11.9-15.4-19.4-24.3-15.9-34.2
				C942.6,464.4,933.2,457.4,928.7,457.4z"/>
		</g>
	</g>
	<path class="st27" d="M982.9,337.5c-23.6,0-42.7,19.1-42.7,42.7c0,23.6,19.1,42.7,42.7,42.7s42.7-19.1,42.7-42.7
		C1025.5,356.6,1006.4,337.5,982.9,337.5z M961.3,376.8c0-2.9,2.3-5.2,5.2-5.2c2.9,0,5.2,2.3,5.2,5.2s-2.3,5.2-5.2,5.2
		C963.6,382,961.3,379.7,961.3,376.8z M982.9,403.4c-6.9,0-12.5-5.1-13.4-11.7h26.9C995.4,398.3,989.7,403.4,982.9,403.4z
		 M999.2,382c-2.9,0-5.2-2.3-5.2-5.2s2.3-5.2,5.2-5.2c2.9,0,5.2,2.3,5.2,5.2S1002.1,382,999.2,382z"/>
	<polygon class="st8" points="349.1,683.6 346.6,678.6 414.2,644.8 499.6,646.2 592.2,611.3 663,611.3 738.5,586.1 739.1,586.2 
		799.7,593.1 833.9,575.3 836.5,580.2 800.8,598.8 799.9,598.7 739.1,591.8 663.4,616.9 592.7,616.9 500.5,651.8 500,651.8 
		415.5,650.4 	"/>
	<g>
		<path class="st25" d="M597.3,549.6c0,0,67,108.6,58.6,184.1l45.6,0.9L682,723.3l5.6-0.9c0,0-16.8-117.1-32.6-158.6
			c-16.6-43.5-21.4-27.4-21.4-27.4L597.3,549.6z"/>
		<path class="st25" d="M573.1,542.9c0,0,3.7,75.4-1.9,104.3c-5.6,28.9-22.3,85.6-22.3,85.6l42.8,0.9l-11.2-7.9l-7.1-4.2
			c0,0,30.5-81.9,33.3-121c2.8-39.1,7.4-61.4,7.4-61.4L573.1,542.9z"/>
		<g>
			<polyline class="st23" points="660.7,319.7 667.7,314.8 670.9,303.3 667.4,302.6 665.3,306.8 667.4,286.9 663.9,287.6 
				660.4,306.8 656.2,315.8 660,318.3 			"/>
			<polygon class="st23" points="702.1,340.4 703,332 713.2,321.8 715.5,325 711.8,329.2 731.4,324.6 731.4,328.8 713.2,335.7 
				709.5,342.3 			"/>
			<g>
				<g>
					<g>
						<path class="st3" d="M655.9,312.6c0,0-79.5,96.5-88.8,115.8c0,0-3.9,6.9-3.9,27c0,20.1,6.9,94.2,6.9,94.2l81,4.6
							c0,0-26.2-90.3-27-92.6s-13.9-16.2-26.2-19.3l67.9-122.7L655.9,312.6z"/>
						<g>
							<path class="st23" d="M605.6,433c0,0,3.4,10,5.2,16.1c0,0-16.5-0.3-22.4-8l6.2-14.8L605.6,433z"/>
							<g>
								<path class="st23" d="M618.1,401.7c0,0,4.9,28.5,0,35c-4.9,6.5-21.7-4.5-28.7-14.9c-7-10.4-8.4-33.7,3.5-35.6
									C604.9,384.2,615.3,391.3,618.1,401.7z"/>
							</g>
						</g>
						<path class="st3" d="M610.6,454.4c0,0,63.7-40.1,68.9-48.3c5.1-8.2,19.5-69.4,19.5-69.4l12.3,3.1c0,0-7.2,68.4-9.3,75.6
							c-2.1,7.2-64.8,74-79.2,74C608.6,489.4,603.4,470.9,610.6,454.4z"/>
					</g>
				</g>
			</g>
		</g>
		<path class="st25" d="M613.6,395.3c0,0,3.3-11.2-3.7-16.8c-7-5.6-19.1-4.7-20.9-2.8c0,3.3,7.4,5.1,5.6,7c-1.9,1.9-11.6,0-14,9.8
			c-2.3,9.8,0.9,11.6,0.9,11.6s-5.1,6.1,0.9,14.4c6.1,8.4,19.7,15.3,23.1,14.4c3.4-0.9,1.5-13.9,1.5-13.9s-7.9-0.9-8.4-6.1
			c-0.5-5.1,3.7-5.6,5.6-3.7c1.9,1.9,2.3,6.1,3.7,5.1c1.4-0.9-0.5-10.7-0.5-10.7S612.7,399.5,613.6,395.3z"/>
	</g>
	<g>
		<path class="st9" d="M341.6,328.6l-47.9,13.1c-13.2,3.6-21,17.3-17.4,30.5l9.1,33c3.6,13.2,17.3,21,30.5,17.4l14.4-3.9l14.1,14
			l5-19.2l14.4-3.9c13.2-3.6,21-17.3,17.4-30.5l-9.1-33C368.5,332.8,354.8,325,341.6,328.6z"/>
		<g>
			
				<ellipse transform="matrix(0.9644 -0.2645 0.2645 0.9644 -90.7621 94.2757)" class="st22" cx="304.6" cy="384.1" rx="5.5" ry="5.5"/>
			
				<ellipse transform="matrix(0.9644 -0.2645 0.2645 0.9644 -88.1391 100.4016)" class="st22" cx="328.8" cy="377.5" rx="5.5" ry="5.5"/>
			
				<ellipse transform="matrix(0.9644 -0.2645 0.2645 0.9644 -85.5424 106.567)" class="st22" cx="352.9" cy="370.9" rx="5.5" ry="5.5"/>
		</g>
	</g>
	<circle class="st14" cx="414.4" cy="646.2" r="8.8"/>
	<circle class="st26" cx="739.3" cy="589.4" r="8.8"/>
	<g>
		<path class="st28" d="M329.8,497.1l-3.8-25.6c0,0,118.6-19.3,135.3,99.8C478,690.4,420,714.9,420,714.9L329.8,497.1z"/>
		<path class="st29" d="M461.2,571.3C444.5,452.2,326,471.5,326,471.5l2.5,16.6c33.7-0.1,105,10.6,117.7,100.9
			c8.7,62-2.9,98.4-15.9,119C446,694.6,473.4,658,461.2,571.3z"/>
		<path class="st28" d="M318.6,719.1c0,0-14.6-80.4,38.7-149.4c0,0-56.4,16.7-69,49.1l-27.2-16.7l-3.1-29.3l74.2-78.4
			c0,0,87.8,7.3,100.3,90.9C445,669,421,719.1,421,719.1H318.6z"/>
		<g>
			<g>
				<path class="st30" d="M432.5,585.4c-12.5-83.6-100.3-90.9-100.3-90.9l-2.5,2.6c26.4,10.3,60.5,33,67.9,82.7
					c12.5,83.6-79.8,133.7-79.8,133.7c0.4,3.6,0.8,5.6,0.8,5.6H421C421,719.1,445,669,432.5,585.4z"/>
			</g>
		</g>
		<path class="st31" d="M330.4,561.1c-24.6,18-40.3,41.6-43.1,56.7c14.4-23.8,56.2-43.4,67-47.1c4.2-7.4,9.1-14.3,14.3-20.9
			C358,546,339.6,554.3,330.4,561.1z"/>
		<path class="st28" d="M474.5,815.7c-3.2-53.3-47.5-95.6-101.7-95.6c-54.1,0-98.4,42.3-101.7,95.6H474.5z"/>
		<path class="st30" d="M403.7,724.9c3.6,13.8,3.3,28.1-6,40c-17.1,21.9-51.5,24.7-77,23.7c-13.7-0.5-28-2.2-42-5.4
			c-4.2,10.1-6.8,21.1-7.5,32.6h203.3C471.9,772.9,443,737.3,403.7,724.9z"/>
		<path class="st32" d="M487.3,810.2c0,4.8-3.9,8.6-8.6,8.6H267.1c-4.8,0-8.6-3.9-8.6-8.6l0,0c0-4.8,3.9-8.6,8.6-8.6h211.5
			C483.4,801.6,487.3,805.4,487.3,810.2L487.3,810.2z"/>
		<g>
			<path class="st32" d="M431.5,721.7c0,3.5-2,6.3-4.4,6.3H318.7c-2.4,0-4.4-2.8-4.4-6.3l0,0c0-3.5,2-6.3,4.4-6.3h108.4
				C429.5,715.4,431.5,718.2,431.5,721.7L431.5,721.7z"/>
		</g>
	</g>
	<g>
		<path class="st3" d="M237.7,380.9h-81.3c-1,0-1.7-0.8-1.7-1.7v-85c0-1,0.8-1.7,1.7-1.7h81.3c1,0,1.7,0.8,1.7,1.7v85
			C239.4,380.1,238.6,380.9,237.7,380.9z"/>
		<g>
			<polyline class="st23" points="150.3,372.1 158.4,366.4 162,353 158,352.2 155.5,357 158,333.9 153.9,334.7 149.9,357 145,367.6 
				149.5,370.4 			"/>
			<polygon class="st23" points="198.3,396.1 199.3,386.4 211.2,374.5 214,378.3 209.6,383.1 232.3,377.7 232.3,382.6 211.2,390.7 
				206.9,398.3 			"/>
			<g>
				<g>
					<polygon class="st25" points="50.2,636.8 94.4,853.3 127.9,849.7 105.2,841.3 113.5,838.9 101.6,636.8 					"/>
					<path class="st25" d="M120.7,633.2c0,0,56.2,52.6,47.8,116c-9.6,50.2-29.9,69.4-29.9,69.4l-6-1.2l9.3,24.5L115,813.2
						c0,0,33.2-45.7,12.6-93.3s-65.5-64.6-65.5-64.6s38.6-35,41.3-34.1C106.1,622.2,120.7,633.2,120.7,633.2z"/>
					<g>
						<path class="st33" d="M144.6,363.9c0,0-92.4,112.1-103.1,134.5c0,0-4.5,8.1-4.5,31.4c0,23.3,8.1,109.4,8.1,109.4l94.2,5.4
							c0,0-30.5-104.9-31.4-107.6c-0.9-2.7-16.1-18.8-30.5-22.4l78.9-142.6L144.6,363.9z"/>
						<g>
							<path class="st23" d="M86.1,503.7c0,0,3.9,11.6,6.1,18.7c0,0-19.2-0.4-26-9.3l7.2-17.2L86.1,503.7z"/>
							<g>
								<path class="st23" d="M100.8,467.3c0,0,5.7,33.1,0,40.6c-5.7,7.5-25.2-5.3-33.3-17.3c-8.1-12-9.7-39.1,4.1-41.4
									C85.3,447,97.5,455.3,100.8,467.3z"/>
							</g>
						</g>
						<path class="st33" d="M92,528.6c0,0,74.1-46.6,80-56.1c6-9.6,22.7-80.6,22.7-80.6l14.3,3.6c0,0-8.4,79.4-10.8,87.8
							c-2.4,8.4-75.3,86-92,86C89.6,569.2,83.7,547.7,92,528.6z"/>
					</g>
				</g>
				<path class="st25" d="M60.9,450.8c0,0,9.7-13.5,27-10.3s21.6-0.5,21.6-0.5s-3.8,18.9-15.7,23.3c-11.9,4.3-15.1,3.2-15.1,3.2
					s6.5,6.5,8.1,11.4c1.6,4.9-5.4-6-8.1-2.2c-2.7,3.8,0,11.9,5.4,11.4c5.4-0.5,2.2,3.8,0,8.1c-2.2,4.3-5.4,9.7-8.7,8.1
					c-3.2-1.6-14.6-8.1-18.9-21.6C52.2,468.1,51.1,455.1,60.9,450.8z"/>
			</g>
		</g>
	</g>
	<g>
		<circle class="st22" cx="196.1" cy="342.1" r="17"/>
		<g>
			<path class="st9" d="M213.7,321.6h-3l-4.3-6.1c-0.3-0.5-0.9-0.8-1.5-0.8h-17.2c-0.6,0-1.1,0.3-1.5,0.8l-4.3,6.1h-3
				c-4.7,0-8.5,3.8-8.5,8.5v24.7c0,4.7,3.8,8.5,8.5,8.5h34.7c4.7,0,8.5-3.8,8.5-8.5v-24.7C222.2,325.4,218.4,321.6,213.7,321.6z
				 M196.3,354.7c-6.9,0-12.5-5.6-12.5-12.5c0-6.9,5.6-12.5,12.5-12.5c6.9,0,12.5,5.6,12.5,12.5
				C208.8,349.1,203.2,354.7,196.3,354.7z"/>
			<circle class="st3" cx="196.3" cy="342.2" r="8.3"/>
		</g>
	</g>
</g>
</svg>
